{
	"asset":{
		"version":"2.0",
		"generator":"Created using the official Cinema 4D glTF Exporter 1.000x284978"
	},
	"scenes":[{
		"nodes":[0,
		1]
	}],
	"accessors":[{
		"bufferView":0,
		"type":"SCALAR",
		"componentType":5123,
		"count":36,
		"min":[0],
		"byteOffset":0,
		"max":[23]
	},
	{
		"bufferView":1,
		"type":"VEC3",
		"componentType":5126,
		"count":24,
		"min":[-2.550783157348633,
		-0.004999999888241291,
		-2.5],
		"byteOffset":0,
		"max":[2.550783157348633,
		0.004999999888241291,
		2.5]
	},
	{
		"bufferView":1,
		"type":"VEC3",
		"componentType":5126,
		"count":24,
		"min":[-1.0,
		-1.0,
		-1.0],
		"byteOffset":12,
		"max":[1.0,
		1.0,
		1.0]
	},
	{
		"bufferView":1,
		"type":"VEC2",
		"componentType":5126,
		"count":24,
		"min":[0.0,
		0.0],
		"byteOffset":24,
		"max":[1.0,
		1.0]
	},
	{
		"bufferView":2,
		"type":"SCALAR",
		"componentType":5123,
		"count":3084,
		"min":[0],
		"byteOffset":0,
		"max":[1035]
	},
	{
		"bufferView":3,
		"type":"VEC3",
		"componentType":5126,
		"count":1036,
		"min":[-2.551846504211426,
		-2.425740101187358e-16,
		-1.4680440425872803],
		"byteOffset":0,
		"max":[0.09218939393758774,
		0.009999999776482582,
		0.6043162941932678]
	},
	{
		"bufferView":3,
		"type":"VEC3",
		"componentType":5126,
		"count":1036,
		"min":[-1.0,
		-1.0,
		-0.9999997019767761],
		"byteOffset":12,
		"max":[0.9999952912330627,
		1.0,
		0.9998053908348084]
	},
	{
		"bufferView":3,
		"type":"VEC2",
		"componentType":5126,
		"count":1036,
		"min":[0.0,
		0.0],
		"byteOffset":24,
		"max":[1.0,
		1.0]
	},
	{
		"bufferView":4,
		"type":"SCALAR",
		"componentType":5123,
		"count":3612,
		"min":[0],
		"byteOffset":0,
		"max":[1211]
	},
	{
		"bufferView":5,
		"type":"VEC3",
		"componentType":5126,
		"count":1212,
		"min":[0.029966922476887704,
		3.891802990443026e-16,
		-1.5509470701217652],
		"byteOffset":0,
		"max":[2.552816152572632,
		0.009999999776482582,
		2.008939743041992]
	},
	{
		"bufferView":5,
		"type":"VEC3",
		"componentType":5126,
		"count":1212,
		"min":[-1.0,
		-1.0,
		-0.9999976754188538],
		"byteOffset":12,
		"max":[1.0,
		1.0,
		0.999998152256012]
	},
	{
		"bufferView":5,
		"type":"VEC2",
		"componentType":5126,
		"count":1212,
		"min":[0.0,
		0.0],
		"byteOffset":24,
		"max":[1.0,
		1.0]
	},
	{
		"bufferView":6,
		"type":"SCALAR",
		"componentType":5123,
		"count":1872,
		"min":[0],
		"byteOffset":0,
		"max":[631]
	},
	{
		"bufferView":7,
		"type":"VEC3",
		"componentType":5126,
		"count":632,
		"min":[-2.551846504211426,
		-4.701228733630419e-16,
		-0.9112440943717957],
		"byteOffset":0,
		"max":[0.30843469500541689,
		0.009999999776482582,
		2.194225788116455]
	},
	{
		"bufferView":7,
		"type":"VEC3",
		"componentType":5126,
		"count":632,
		"min":[-1.0,
		-1.0,
		-0.9994347095489502],
		"byteOffset":12,
		"max":[0.9999448657035828,
		1.0,
		0.9999814629554749]
	},
	{
		"bufferView":7,
		"type":"VEC2",
		"componentType":5126,
		"count":632,
		"min":[0.0,
		0.0],
		"byteOffset":24,
		"max":[1.0,
		1.0]
	},
	{
		"bufferView":8,
		"type":"SCALAR",
		"componentType":5123,
		"count":1200,
		"min":[0],
		"byteOffset":0,
		"max":[405]
	},
	{
		"bufferView":9,
		"type":"VEC3",
		"componentType":5126,
		"count":406,
		"min":[0.9462088942527771,
		4.225184305872682e-16,
		-2.0639700889587404],
		"byteOffset":0,
		"max":[2.047227144241333,
		0.009999999776482582,
		-1.436476469039917]
	},
	{
		"bufferView":9,
		"type":"VEC3",
		"componentType":5126,
		"count":406,
		"min":[-0.9999524354934692,
		-1.0,
		-0.9998235106468201],
		"byteOffset":12,
		"max":[0.999525249004364,
		1.0,
		0.9999337792396545]
	},
	{
		"bufferView":9,
		"type":"VEC2",
		"componentType":5126,
		"count":406,
		"min":[0.0,
		0.0],
		"byteOffset":24,
		"max":[1.0,
		1.0]
	},
	{
		"bufferView":10,
		"type":"SCALAR",
		"componentType":5123,
		"count":840,
		"min":[0],
		"byteOffset":0,
		"max":[287]
	},
	{
		"bufferView":11,
		"type":"VEC3",
		"componentType":5126,
		"count":288,
		"min":[0.33528515696525576,
		6.498263394278601e-17,
		-2.0900661945343019],
		"byteOffset":0,
		"max":[0.6980997920036316,
		0.009999999776482582,
		-1.9307087659835816]
	},
	{
		"bufferView":11,
		"type":"VEC3",
		"componentType":5126,
		"count":288,
		"min":[-0.9992044568061829,
		-1.0,
		-0.9999765157699585],
		"byteOffset":12,
		"max":[0.9999586343765259,
		1.0,
		0.9999528527259827]
	},
	{
		"bufferView":11,
		"type":"VEC2",
		"componentType":5126,
		"count":288,
		"min":[0.0,
		0.0],
		"byteOffset":24,
		"max":[1.0,
		1.0]
	},
	{
		"bufferView":12,
		"type":"SCALAR",
		"componentType":5123,
		"count":492,
		"min":[0],
		"byteOffset":0,
		"max":[175]
	},
	{
		"bufferView":13,
		"type":"VEC3",
		"componentType":5126,
		"count":176,
		"min":[-2.551846504211426,
		-0.009999999776482582,
		1.2709221839904786],
		"byteOffset":0,
		"max":[2.552816152572632,
		1.5345158568880246e-16,
		2.5012059211730959]
	},
	{
		"bufferView":13,
		"type":"VEC3",
		"componentType":5126,
		"count":176,
		"min":[-0.739137589931488,
		-1.0,
		-1.0],
		"byteOffset":12,
		"max":[1.0,
		1.0,
		1.0]
	},
	{
		"bufferView":13,
		"type":"VEC2",
		"componentType":5126,
		"count":176,
		"min":[0.0,
		0.0],
		"byteOffset":24,
		"max":[1.0,
		1.0]
	}],
	"nodes":[{
		"name":"sea",
		"mesh":0
	},
	{
		"rotation":[-4.329780301713277e-17,
		-0.7071067690849304,
		0.7071067690849304,
		-4.329780301713277e-17],
		"name":"Citymap_v2",
		"translation":[0.12364576011896134,
		-3.60370622358679e-18,
		-0.058852989226579669],
		"scale":[1.0,
		1.0,
		1.0],
		"children":[2,
		4,
		6,
		8,
		10,
		12]
	},
	{
		"rotation":[-4.329780301713277e-17,
		-0.7071067690849304,
		0.7071067690849304,
		-4.329780301713277e-17],
		"name":"Extrude1",
		"translation":[0.12364576011896134,
		-0.058852989226579669,
		0.0],
		"scale":[1.0,
		1.0,
		1.0],
		"children":[3]
	},
	{
		"name":"Extrude1",
		"mesh":1
	},
	{
		"rotation":[-4.329780301713277e-17,
		-0.7071067690849304,
		0.7071067690849304,
		-4.329780301713277e-17],
		"name":"Extrude2",
		"translation":[0.12364576011896134,
		-0.058852989226579669,
		0.0],
		"scale":[1.0,
		1.0,
		1.0],
		"children":[5]
	},
	{
		"name":"Extrude2",
		"mesh":2
	},
	{
		"rotation":[-4.329780301713277e-17,
		-0.7071067690849304,
		0.7071067690849304,
		-4.329780301713277e-17],
		"name":"Extrude3",
		"translation":[0.12364576011896134,
		-0.058852989226579669,
		0.0],
		"scale":[1.0,
		1.0,
		1.0],
		"children":[7]
	},
	{
		"name":"Extrude3",
		"mesh":3
	},
	{
		"rotation":[-4.329780301713277e-17,
		-0.7071067690849304,
		0.7071067690849304,
		-4.329780301713277e-17],
		"name":"Extrude4",
		"translation":[0.12364576011896134,
		-0.058852989226579669,
		0.0],
		"scale":[1.0,
		1.0,
		1.0],
		"children":[9]
	},
	{
		"name":"Extrude4",
		"mesh":4
	},
	{
		"rotation":[-4.329780301713277e-17,
		-0.7071067690849304,
		0.7071067690849304,
		-4.329780301713277e-17],
		"name":"Extrude5",
		"translation":[0.12364576011896134,
		-0.058852989226579669,
		0.0],
		"scale":[1.0,
		1.0,
		1.0],
		"children":[11]
	},
	{
		"name":"Extrude5",
		"mesh":5
	},
	{
		"rotation":[-4.329780301713277e-17,
		-0.7071067690849304,
		0.7071067690849304,
		-4.329780301713277e-17],
		"name":"Extrude6",
		"translation":[0.12364576011896134,
		-0.058852989226579669,
		-0.009883270598948002],
		"scale":[1.0,
		1.0,
		1.0],
		"children":[13]
	},
	{
		"name":"Extrude6",
		"mesh":6
	}],
	"meshes":[{
		"name":"sea",
		"primitives":[{
			"attributes":{
				"POSITION":1,
				"NORMAL":2,
				"TEXCOORD_0":3
			},
			"indices":0,
			"material":0
		}]
	},
	{
		"name":"Extrude1",
		"primitives":[{
			"attributes":{
				"POSITION":5,
				"NORMAL":6,
				"TEXCOORD_0":7
			},
			"indices":4,
			"material":1
		}]
	},
	{
		"name":"Extrude2",
		"primitives":[{
			"attributes":{
				"POSITION":9,
				"NORMAL":10,
				"TEXCOORD_0":11
			},
			"indices":8,
			"material":1
		}]
	},
	{
		"name":"Extrude3",
		"primitives":[{
			"attributes":{
				"POSITION":13,
				"NORMAL":14,
				"TEXCOORD_0":15
			},
			"indices":12,
			"material":1
		}]
	},
	{
		"name":"Extrude4",
		"primitives":[{
			"attributes":{
				"POSITION":17,
				"NORMAL":18,
				"TEXCOORD_0":19
			},
			"indices":16,
			"material":1
		}]
	},
	{
		"name":"Extrude5",
		"primitives":[{
			"attributes":{
				"POSITION":21,
				"NORMAL":22,
				"TEXCOORD_0":23
			},
			"indices":20,
			"material":1
		}]
	},
	{
		"name":"Extrude6",
		"primitives":[{
			"attributes":{
				"POSITION":25,
				"NORMAL":26,
				"TEXCOORD_0":27
			},
			"indices":24,
			"material":1
		}]
	}],
	"bufferViews":[{
		"buffer":0,
		"byteLength":72,
		"byteOffset":0,
		"target":34963
	},
	{
		"buffer":0,
		"byteLength":768,
		"byteOffset":72,
		"target":34962,
		"byteStride":32
	},
	{
		"buffer":1,
		"byteLength":6168,
		"byteOffset":0,
		"target":34963
	},
	{
		"buffer":1,
		"byteLength":33152,
		"byteOffset":6168,
		"target":34962,
		"byteStride":32
	},
	{
		"buffer":2,
		"byteLength":7224,
		"byteOffset":0,
		"target":34963
	},
	{
		"buffer":2,
		"byteLength":38784,
		"byteOffset":7224,
		"target":34962,
		"byteStride":32
	},
	{
		"buffer":3,
		"byteLength":3744,
		"byteOffset":0,
		"target":34963
	},
	{
		"buffer":3,
		"byteLength":20224,
		"byteOffset":3744,
		"target":34962,
		"byteStride":32
	},
	{
		"buffer":4,
		"byteLength":2400,
		"byteOffset":0,
		"target":34963
	},
	{
		"buffer":4,
		"byteLength":12992,
		"byteOffset":2400,
		"target":34962,
		"byteStride":32
	},
	{
		"buffer":5,
		"byteLength":1680,
		"byteOffset":0,
		"target":34963
	},
	{
		"buffer":5,
		"byteLength":9216,
		"byteOffset":1680,
		"target":34962,
		"byteStride":32
	},
	{
		"buffer":6,
		"byteLength":984,
		"byteOffset":0,
		"target":34963
	},
	{
		"buffer":6,
		"byteLength":5632,
		"byteOffset":984,
		"target":34962,
		"byteStride":32
	}],
	"buffers":[{
		"uri":"data:application/octet-stream;base64,",
		"byteLength":840
	},
	{
		"uri":"data:application/octet-stream;base64,",
		"byteLength":39320
	},
	{
		"uri":"data:application/octet-stream;base64,",
		"byteLength":46008
	},
	{
		"uri":"data:application/octet-stream;base64,",
		"byteLength":23968
	},
	{
		"uri":"data:application/octet-stream;base64,",
		"byteLength":15392
	},
	{
		"uri":"data:application/octet-stream;base64,",
		"byteLength":10896
	},
	{
		"uri":"data:application/octet-stream;base64,",
		"byteLength":6616
	}],
	"materials":[{
		"pbrMetallicRoughness":{
			"baseColorFactor":[0.0,
			0.6833333333333331,
			1.0,
			1.0],
			"metallicFactor":0.0,
			"roughnessFactor":0.5
		},
		"emissiveFactor":[0.0,
		0.0,
		0.0],
		"alphaMode":"OPAQUE",
		"doubleSided":false,
		"name":"BlueMat"
	},
	{
		"pbrMetallicRoughness":{
			"baseColorFactor":[0.86,
			0.86,
			0.86,
			1.0],
			"metallicFactor":0.0,
			"roughnessFactor":0.5
		},
		"emissiveFactor":[0.0,
		0.0,
		0.0],
		"alphaMode":"OPAQUE",
		"doubleSided":false,
		"name":"GrayMam"
	}]
}