{
	"asset":{
		"version":"2.0",
		"generator":"Created using the official Cinema 4D glTF Exporter 1.000x284978"
	},
	"scenes":[{
		"nodes":[0]
	}],
	"nodes":[{
		"name":"Citymap",
		"translation":[0.0,
		0.0,
		0.0],
		"rotation":[-0.7071067690849304,
		0.0,
		0.0,
		-0.7071067690849304],
		"scale":[1.0,
		1.0,
		1.0],
		"children":[1,
		3,
		5,
		7,
		9]
	},
	{
		"name":"RightCoast",
		"translation":[0.0,
		0.0,
		0.0],
		"rotation":[0.7071067690849304,
		0.0,
		0.0,
		-0.7071067690849304],
		"scale":[1.0,
		1.0,
		1.0],
		"children":[2]
	},
	{
		"name":"RightCoast",
		"mesh":0
	},
	{
		"name":"LeftCoast",
		"translation":[0.0,
		0.0,
		0.0],
		"rotation":[0.7071067690849304,
		0.0,
		0.0,
		-0.7071067690849304],
		"scale":[1.0,
		1.0,
		1.0],
		"children":[4]
	},
	{
		"name":"LeftCoast",
		"mesh":1
	},
	{
		"name":"River",
		"translation":[0.0,
		0.0,
		0.0],
		"rotation":[0.7071067690849304,
		0.0,
		0.0,
		-0.7071067690849304],
		"scale":[1.0,
		1.0,
		1.0],
		"children":[6]
	},
	{
		"name":"River",
		"mesh":2
	},
	{
		"name":"LeftBordur",
		"translation":[0.0,
		7.432068911278694e-19,
		-0.014999999664723874],
		"rotation":[0.7071067690849304,
		0.0,
		0.0,
		-0.7071067690849304],
		"scale":[1.0,
		1.0,
		1.0],
		"children":[8]
	},
	{
		"name":"LeftBordur",
		"mesh":3
	},
	{
		"name":"RightBordur",
		"translation":[0.0,
		1.5052791870886592e-18,
		-0.027445584535598756],
		"rotation":[0.7071067690849304,
		0.0,
		0.0,
		-0.7071067690849304],
		"scale":[1.0,
		1.0,
		1.0],
		"children":[10]
	},
	{
		"name":"RightBordur",
		"mesh":4
	}],
	"meshes":[{
		"name":"RightCoast",
		"primitives":[{
			"attributes":{
				"POSITION":1,
				"NORMAL":2,
				"TEXCOORD_0":3
			},
			"indices":0,
			"material":0
		}]
	},
	{
		"name":"LeftCoast",
		"primitives":[{
			"attributes":{
				"POSITION":5,
				"NORMAL":6,
				"TEXCOORD_0":7
			},
			"indices":4,
			"material":0
		}]
	},
	{
		"name":"River",
		"primitives":[{
			"attributes":{
				"POSITION":9,
				"NORMAL":10,
				"TEXCOORD_0":11
			},
			"indices":8,
			"material":1
		}]
	},
	{
		"name":"LeftBordur",
		"primitives":[{
			"attributes":{
				"POSITION":13,
				"NORMAL":14,
				"TEXCOORD_0":15
			},
			"indices":12,
			"material":2
		}]
	},
	{
		"name":"RightBordur",
		"primitives":[{
			"attributes":{
				"POSITION":17,
				"NORMAL":18,
				"TEXCOORD_0":19
			},
			"indices":16,
			"material":2
		}]
	}],
	"accessors":[{
		"bufferView":0,
		"type":"SCALAR",
		"componentType":5123,
		"count":816,
		"byteOffset":0,
		"min":[0],
		"max":[281]
	},
	{
		"bufferView":1,
		"type":"VEC3",
		"componentType":5126,
		"count":282,
		"byteOffset":0,
		"min":[-2.309828281402588,
		-1.2863314975733703e-16,
		-2.100738763809204],
		"max":[0.7404552698135376,
		0.009999999776482582,
		1.3984445333480836]
	},
	{
		"bufferView":1,
		"type":"VEC3",
		"componentType":5126,
		"count":282,
		"byteOffset":12,
		"min":[-1.0,
		-1.0,
		-1.0],
		"max":[0.9998962879180908,
		1.0,
		0.9999908804893494]
	},
	{
		"bufferView":1,
		"type":"VEC2",
		"componentType":5126,
		"count":282,
		"byteOffset":24,
		"min":[0.0,
		0.0],
		"max":[1.0,
		1.0]
	},
	{
		"bufferView":2,
		"type":"SCALAR",
		"componentType":5123,
		"count":876,
		"byteOffset":0,
		"min":[0],
		"max":[303]
	},
	{
		"bufferView":3,
		"type":"VEC3",
		"componentType":5126,
		"count":304,
		"byteOffset":0,
		"min":[-1.0860916376113892,
		-1.2863314975733703e-16,
		-2.100738763809204],
		"max":[2.6872053146362306,
		0.009999999776482582,
		2.898118734359741]
	},
	{
		"bufferView":3,
		"type":"VEC3",
		"componentType":5126,
		"count":304,
		"byteOffset":12,
		"min":[-0.9999999403953552,
		-1.0,
		-1.0],
		"max":[1.0,
		1.0,
		1.0]
	},
	{
		"bufferView":3,
		"type":"VEC2",
		"componentType":5126,
		"count":304,
		"byteOffset":24,
		"min":[0.0,
		0.0],
		"max":[1.0,
		1.0]
	},
	{
		"bufferView":4,
		"type":"SCALAR",
		"componentType":5123,
		"count":1680,
		"byteOffset":0,
		"min":[0],
		"max":[573]
	},
	{
		"bufferView":5,
		"type":"VEC3",
		"componentType":5126,
		"count":574,
		"byteOffset":0,
		"min":[-2.309828281402588,
		-1.2863314975733703e-16,
		-2.100738763809204],
		"max":[2.4573495388031008,
		0.009999999776482582,
		2.898118734359741]
	},
	{
		"bufferView":5,
		"type":"VEC3",
		"componentType":5126,
		"count":574,
		"byteOffset":12,
		"min":[-1.0,
		-1.0,
		-1.0],
		"max":[0.9999999403953552,
		1.0,
		1.0]
	},
	{
		"bufferView":5,
		"type":"VEC2",
		"componentType":5126,
		"count":574,
		"byteOffset":24,
		"min":[0.0,
		0.0],
		"max":[1.0,
		1.0]
	},
	{
		"bufferView":6,
		"type":"SCALAR",
		"componentType":5123,
		"count":2076,
		"byteOffset":0,
		"min":[0],
		"max":[715]
	},
	{
		"bufferView":7,
		"type":"VEC3",
		"componentType":5126,
		"count":716,
		"byteOffset":0,
		"min":[-1.0920394659042359,
		-0.019999999552965165,
		-2.1015148162841799],
		"max":[2.4633326530456545,
		1.7748085161122289e-16,
		2.898482084274292]
	},
	{
		"bufferView":7,
		"type":"VEC3",
		"componentType":5126,
		"count":716,
		"byteOffset":12,
		"min":[-0.9998436570167542,
		-1.0,
		-0.9999717473983765],
		"max":[0.9999940395355225,
		1.0,
		0.999949038028717]
	},
	{
		"bufferView":7,
		"type":"VEC2",
		"componentType":5126,
		"count":716,
		"byteOffset":24,
		"min":[0.0,
		0.0],
		"max":[1.0,
		1.0]
	},
	{
		"bufferView":8,
		"type":"SCALAR",
		"componentType":5123,
		"count":1788,
		"byteOffset":0,
		"min":[0],
		"max":[629]
	},
	{
		"bufferView":9,
		"type":"VEC3",
		"componentType":5126,
		"count":630,
		"byteOffset":0,
		"min":[-2.3127951622009279,
		-0.03500000014901161,
		-2.1015007495880129],
		"max":[0.7464022636413574,
		-0.014999999664723874,
		1.4057834148406983]
	},
	{
		"bufferView":9,
		"type":"VEC3",
		"componentType":5126,
		"count":630,
		"byteOffset":12,
		"min":[-0.9999122023582459,
		-1.0,
		-0.9999988675117493],
		"max":[0.9998935461044312,
		1.0,
		1.0]
	},
	{
		"bufferView":9,
		"type":"VEC2",
		"componentType":5126,
		"count":630,
		"byteOffset":24,
		"min":[0.0,
		0.0],
		"max":[1.0,
		1.0]
	}],
	"bufferViews":[{
		"byteLength":1632,
		"buffer":0,
		"byteOffset":0,
		"target":34963
	},
	{
		"byteLength":9024,
		"buffer":0,
		"byteOffset":1632,
		"target":34962,
		"byteStride":32
	},
	{
		"byteLength":1752,
		"buffer":1,
		"byteOffset":0,
		"target":34963
	},
	{
		"byteLength":9728,
		"buffer":1,
		"byteOffset":1752,
		"target":34962,
		"byteStride":32
	},
	{
		"byteLength":3360,
		"buffer":2,
		"byteOffset":0,
		"target":34963
	},
	{
		"byteLength":18368,
		"buffer":2,
		"byteOffset":3360,
		"target":34962,
		"byteStride":32
	},
	{
		"byteLength":4152,
		"buffer":3,
		"byteOffset":0,
		"target":34963
	},
	{
		"byteLength":22912,
		"buffer":3,
		"byteOffset":4152,
		"target":34962,
		"byteStride":32
	},
	{
		"byteLength":3576,
		"buffer":4,
		"byteOffset":0,
		"target":34963
	},
	{
		"byteLength":20160,
		"buffer":4,
		"byteOffset":3576,
		"target":34962,
		"byteStride":32
	}],
	"buffers":[{
		"uri":"data:application/octet-stream;base64,",
		"byteLength":10656
	},
	{
		"uri":"data:application/octet-stream;base64,",
		"byteLength":11480
	},
	{
		"uri":"data:application/octet-stream;base64,",
		"byteLength":21728
	},
	{
		"uri":"data:application/octet-stream;base64,",
		"byteLength":27064
	},
	{
		"uri":"data:application/octet-stream;base64,",
		"byteLength":23736
	}],
	"materials":[{
		"doubleSided":false,
		"pbrMetallicRoughness":{
			"baseColorFactor":[0.8300000000000001,
			0.8300000000000001,
			0.8300000000000001,
			1.0],
			"metallicFactor":0.0,
			"roughnessFactor":0.5
		},
		"emissiveFactor":[0.0,
		0.0,
		0.0],
		"alphaMode":"OPAQUE",
		"name":"GrayMam"
	},
	{
		"doubleSided":false,
		"pbrMetallicRoughness":{
			"baseColorFactor":[0.0,
			0.6833333333333331,
			1.0,
			1.0],
			"metallicFactor":0.0,
			"roughnessFactor":0.5
		},
		"emissiveFactor":[0.0,
		0.0,
		0.0],
		"alphaMode":"OPAQUE",
		"name":"BlueMat"
	},
	{
		"doubleSided":false,
		"pbrMetallicRoughness":{
			"baseColorFactor":[1.0,
			1.0,
			1.0,
			1.0],
			"metallicFactor":0.0,
			"roughnessFactor":0.5
		},
		"emissiveFactor":[0.0,
		0.0,
		0.0],
		"alphaMode":"OPAQUE",
		"name":"WgiteMap"
	}]
}